<?xml version="1.0" encoding="UTF-8"?>
<svg id="_банан" data-name="банан" xmlns="http://www.w3.org/2000/svg" viewBox="0 0 96.53 103.76">
  <defs>
    <style>
      .cls-1 {
        fill: #f9b710;
      }

      .cls-2, .cls-3 {
        fill: #ffe4a9;
      }

      .cls-4 {
        fill: #9e6646;
      }

      .cls-5 {
        fill: #fbd845;
      }

      .cls-6 {
        fill: #804d2e;
      }

      .cls-7 {
        fill: #5b341f;
      }

      .cls-3 {
        opacity: .64;
      }

      .cls-8 {
        fill: #ffeb99;
      }
    </style>
  </defs>
  <path class="cls-5" d="m84.4,46.84c-1.94,24.19-24.38,36.96-40.46,41.21-10.42,2.76-17.89,2.27-22.42.89-2.46-.75-4.04-1.75-4.77-2.64-.31-.38-.56-.88-.75-1.46-.57-1.75-.57-4.26.36-6.35.03-.08.07-.16.11-.24.88-1.81,2.48-3.26,5.04-3.56,6.58-.77,33.89-16.04,40.5-29.48,6.67-13.54,4.78-23.54,4.78-23.54,0,0-4.88-4.03-7.7-7.98-.5-.71-.94-1.41-1.28-2.08-.54-1.08-.45-2.14-.02-3.12h0c.28-.63.69-1.23,1.19-1.78.69-.78,1.53-1.47,2.31-2.03,1.51-1.08,3.56-1,5.01.17.07.05.13.11.2.17.77.63,1.47,1.27,2.1,1.91,5.85,5.98,6.12,12.22,6.12,12.22,0,0,11.61,3.48,9.68,27.67Z"/>
  <path class="cls-1" d="m16.1,85.16c10.74-1.43,45.91-7.7,53.95-28.44,9.6-24.77-2.74-46.99-2.74-46.99l.18-.3c3.16,5.63,17.12,30.9,1.74,54.12-13.55,20.46-42.82,22.18-52.91,22.1l-.22-.49Z"/>
  <path class="cls-1" d="m84.4,46.84c-1.94,24.19-24.38,36.96-40.46,41.21-10.42,2.76-17.89,2.27-22.42.89-2.46-.75-4.04-1.75-4.77-2.64-.31-.38-.56-.88-.75-1.46,14.83,2.65,37.71,1.39,51.89-14.54,19.02-21.36,5.67-50.75,5.67-50.75-.23-7.8-6.96-11.8-6.96-11.8l-.09-2.72c.77.63,1.47,1.27,2.1,1.91,5.85,5.98,6.12,12.22,6.12,12.22,0,0,11.61,3.48,9.68,27.67Z"/>
  <path class="cls-8" d="m55.56,61.36c-13.5,11.06-27.54,17.32-33.66,18.66-2.46.54-2.44-1.67-2.44-1.67l-3-.08c.88-1.81,2.48-3.26,5.04-3.56,6.58-.77,33.89-16.04,40.5-29.48,6.67-13.54,4.78-23.54,4.78-23.54,0,0-4.88-4.03-7.7-7.98-.5-.71-.94-1.41-1.28-2.08-.54-1.08-.45-2.14-.02-3.12h0s1.19-1.78,1.19-1.78c0,0,6.6,14.28,9.62,14.96,0,0,9.16,21.48-13.04,39.67Z"/>
  <path class="cls-1" d="m67.23,9.86l-.35.15c-.42-.75-.67-1.15-.67-1.15l1.02,1Z"/>
  <path class="cls-8" d="m71.48,21.84s9.62,32.55-16.05,48.29c-23.29,14.28-38.96,13.45-38.96,13.45,0,0,36.19-9.96,45.41-22.48,13.03-17.68,9.6-39.26,9.6-39.26Z"/>
  <path class="cls-6" d="m21.51,88.95c-.48-.15-.93-.3-1.34-.46-1.71-.67-2.85-1.46-3.43-2.17-1.01-1.24-1.47-3.87-.89-6.32.12-.51.29-1.01.5-1.49,3.6-1.09,5.79.83,6.7,3.85.68,2.23.12,4.93-1.54,6.6Z"/>
  <path class="cls-6" d="m66.66,7.73c8.41,16.05,10.18,36.34,1.43,52.63-4.34,8.12-11.97,14.22-20.29,17.94-8.37,3.81-17.44,5.66-26.47,6.35l-.02-.15c2.22-.47,4.44-.92,6.65-1.34,3.92-.93,9.27-2.32,12.98-3.71,14.91-5.23,28.37-15.66,31.28-32.01,2.21-13.4-1.41-27.25-5.56-39.71h0Z"/>
  <path class="cls-5" d="m68.6,28.46c2.23,10.31-3.38,20.76-10.31,28.09-7.15,7.38-16.21,12.83-25.75,16.51,5.48-3.18,10.9-6.54,15.9-10.37,10.61-8.19,20.83-20.03,20.16-34.23h0Z"/>
  <path class="cls-8" d="m65.85,11.18c.53,3.06,1.29,7.23,3.25,9.74-1.91-1.57-3.11-3.85-4.16-6.05-.35-.76-.67-1.5-.96-2.32l1.87-1.37Z"/>
  <path class="cls-6" d="m68.6,6.95c-1.04,3.08-3.57,7.34-9.51,6.76-.05-.08-.11-.16-.17-.24-.19-.28-.38-.56-.55-.84-.21-.34-.4-.68-.56-1-1.36-2.75,1.27-5.35,3.49-6.93.91-.65,2.02-.89,3.08-.7.69.12,1.35.41,1.93.87.25.2.49.41.73.61.56.49,1.09.98,1.57,1.47Z"/>
  <path class="cls-4" d="m58.37,12.64c-.21-.34-.4-.68-.56-1-1.36-2.75,1.27-5.35,3.49-6.93.91-.65,2.02-.89,3.08-.7.05.66.35,6.68-6,8.64Z"/>
  <path class="cls-7" d="m68.6,6.95c-1.04,3.08-3.57,7.34-9.51,6.76-.05-.08-.11-.16-.17-.24,5.92-1.3,7.62-5.64,8.11-8,.56.49,1.09.98,1.57,1.47Z"/>
  <path class="cls-2" d="m59.83,5.88c.92-1.68,3.02-3.07,4.99-2.46,1.03.3,1.8,1.09,2.37,1.76.54.62,1.07,1.25,1.47,1.97.03.07.15.27.02.27-.13-.07-.05-.04,0-.04-.2-.22-.71-.58-.96-.78-1.02-.75-2.05-1.9-3.19-2.24-1.66-.5-3.33.54-4.71,1.51h0Z"/>
  <ellipse class="cls-3" cx="60.69" cy="7.76" rx="2.26" ry="1.19" transform="translate(13.86 47.14) rotate(-47.35)"/>
  <path class="cls-6" d="m74.72,19.18c4.47,2.08,7.63,6.39,9.25,10.98,3.9,11.52.04,25.15-4.86,35.82-4.59,8.9-12.73,15.54-21.76,19.57-6.72,3.03-14.02,4.79-21.38,5.14-4.88.2-9.85-.18-14.46-1.73,2.36.5,4.77.73,7.18.78,9.55.16,19.1-2.15,27.71-6.23,8.46-4.07,16.17-10.27,20.62-18.63,4.89-10.1,8.99-23.28,5.93-34.39-1.32-4.53-4.08-8.89-8.23-11.31h0Z"/>
  <path class="cls-4" d="m21.51,83.58c.48,2.32-.51,4.09-.72,5.13-1.71-.67-3.47-1.69-4.05-2.4-1.01-1.24-1.47-3.87-.89-6.32,1.71-.15,4.81-.46,5.66,3.59Z"/>
  <path class="cls-7" d="m16.32,78.44c1.4-1.61,3.91-1.53,5.3.05,1.36,1.39,1.65,3.26,1.75,5.08,0,0-.15.02-.15.02-.14-.41-.28-.82-.4-1.23-.44-1.11-1.01-2.25-1.98-2.98-.61-.43-1.29-.5-2-.65-.72-.14-1.51-.13-2.45-.16l-.07-.13h0Z"/>
  <ellipse class="cls-3" cx="18.23" cy="83.52" rx="1.5" ry="2.46" transform="translate(-22.49 8.36) rotate(-16.13)"/>
</svg>