<?xml version="1.0" encoding="UTF-8"?>
<svg id="_плашка" data-name="плашка" xmlns="http://www.w3.org/2000/svg" viewBox="0 0 147.93 101.76">
  <defs>
    <style>
      .cls-1 {
        fill: #f9b710;
      }

      .cls-2 {
        fill: #dd9210;
      }

      .cls-3 {
        fill: #fbd845;
      }

      .cls-4 {
        fill: #ffeb99;
      }
    </style>
  </defs>
  <path class="cls-2" d="m136.98,37.53v31.19c0,16.3-13.27,29.51-29.63,29.51H41.46c-8.79,0-16.68-3.81-22.09-9.86-4.69-5.21-7.54-12.1-7.54-19.65v-31.19c0-16.29,13.26-29.51,29.63-29.51h65.89c4.88,0,9.49,1.18,13.55,3.28,9.55,4.89,16.07,14.8,16.07,26.23Z"/>
  <rect class="cls-3" x="11.83" y="8.02" width="122.71" height="88.8" rx="29.05" ry="29.05"/>
  <path class="cls-1" d="m134.55,37.07v30.7c0,16.05-13.01,29.05-29.05,29.05H40.89c-8.62,0-16.36-3.75-21.66-9.71-4.6-5.13-7.39-11.91-7.39-19.34v-30.7c0-16.04,13-29.05,29.05-29.05h64.61c4.79,0,9.31,1.16,13.29,3.23,9.36,4.81,15.76,14.57,15.76,25.82Z"/>
  <path class="cls-4" d="m134.55,67.77c.57,13.28-9.08,26.03-22.1,29.18-5.61,1.49-13.81.91-19.57,1.17-9.68.12-29.14.37-38.82.44-5.85-.14-14.03.63-19.77-.57-13.71-2.72-24.37-15.65-24.44-29.63.01-6.44.03-22.93.05-29.16-.02-3.32.15-6.9,1.11-10.1C14.49,15.6,27.76,5.83,41.66,6.46c18.7.17,39.44.58,58.24,1.03,2.78.12,6.99,0,9.73.52,3.22.56,6.33,1.66,9.16,3.24-4.38-2.12-9.21-3.01-14.04-2.81,0,0-4.85.11-4.85.11-18.84.51-39.51.81-58.24,1.03-14.17-.25-26.64,10.8-27.77,24.96-.22,3.07-.07,11.17-.09,14.38,0,0,.06,19.37.06,19.37.06,6.04,2.27,12,6.1,16.66,5.9,7.39,15.11,10.6,24.4,10.04,6.15.03,22.75.2,29.12.26,0,0,19.41.25,19.41.25,5.46-.07,13.86.75,19.12-.46,12.64-2.44,22.27-14.46,22.55-27.29h0Z"/>
  <path class="cls-3" d="m122.5,38.62v25.78c0,13.48-11.01,24.4-24.59,24.4h-54.69c-7.3,0-13.85-3.15-18.33-8.16-3.89-4.31-6.26-10-6.26-16.24v-25.78c0-13.47,11-24.4,24.59-24.4h54.69c4.05,0,7.88.97,11.25,2.71,7.92,4.04,13.34,12.24,13.34,21.69Z"/>
  <path class="cls-4" d="m97.91,14.23c13.55-2.62,27.2,10.78,24.59,24.4-.65-3.2-1.56-6.19-2.96-8.92-4.18-8.39-12.41-13.89-21.63-15.48h0Z"/>
  <path class="cls-1" d="m117.42,60.2c3.4,14-12.45,28.14-25.96,22.93,3.26-.86,6.16-1.79,8.83-3.13,8.28-3.98,13.87-11.17,17.14-19.8h0Z"/>
  <path class="cls-4" d="m43.22,88.81c-8.77.71-17.7-4.03-22.28-11.61-2.39-3.8-3.64-8.32-3.71-12.83l-.08-12.84c.18-4.69-.48-15.12,1.08-19.52.88-3.24,2.54-6.29,4.66-8.88,2.07-2.58,4.78-4.72,7.7-6.25,3.91-2.06,8.36-2.91,12.63-2.64-6.39.52-12.34,3.22-16.69,7.82-4.19,4.47-6.59,10.52-6.5,16.63,0,0,.08,12.84.08,12.84l-.08,12.84c-.08,4.05.95,8.09,2.9,11.67,4,7.36,11.86,12.22,20.29,12.78h0Z"/>
  <path class="cls-4" d="m62.33,18.5c-5.29.41-10.59.63-15.88.78-10.34.22-19.65,8.14-21.3,18.38-.45,2.49-.41,5.16-.55,7.81-.14,2.65-.27,5.3-.49,7.94-.22-2.65-.35-5.3-.49-7.94-.02-1.47-.26-4.58-.16-6,.12-9.04,6.38-17.49,14.9-20.44,2.6-.91,5.36-1.38,8.1-1.31,5.3.15,10.59.36,15.89.78h0Z"/>
</svg>